<svg width="72" height="25" viewBox="0 0 72 25" fill="none" xmlns="http://www.w3.org/2000/svg">
<g clip-path="url(#clip0_1_5983)">
<path d="M26.2496 12.0048C26.2496 12.2155 26.2496 12.4025 26.2496 12.5896C26.2496 16.7481 26.2535 18.2966 26.2436 22.4551C26.2422 23.1099 25.9862 23.6568 25.4546 24.0876C25.0358 24.4268 24.5861 24.5626 24.0598 24.5607C21.8415 24.5523 19.6227 24.5587 17.4043 24.5543C16.4337 24.5523 15.6772 23.8601 15.4158 22.9696C15.3911 22.8849 15.3956 22.7904 15.3956 22.7008C15.3931 18.7062 15.3921 17.3221 15.3882 13.3276C15.3882 13.1543 15.4281 13.0548 15.6279 13.1016C15.8878 13.1622 16.1472 13.238 16.411 13.2685C16.6197 13.2926 16.6724 13.3945 16.6719 13.5747C16.6705 14.1241 16.6636 14.674 16.6754 15.2234C16.6907 15.9383 17.0788 16.4355 17.6479 16.8175C17.9848 17.0435 18.3621 17.1188 18.763 17.1173C20.1351 17.1134 21.5076 17.1173 22.8796 17.1134C23.7511 17.1114 24.5358 16.5857 24.8356 15.7817C24.914 15.5715 24.9471 15.3347 24.952 15.1092C24.9678 14.3796 24.9559 13.6495 24.9678 12.92C24.9693 12.8225 25.0191 12.6856 25.0935 12.6359C25.4215 12.4158 25.7662 12.2204 26.1065 12.0185C26.1312 12.0038 26.1692 12.0112 26.2496 12.0048Z" fill="#C9DCBF"/>
<path d="M7.05744 12.5411C7.56887 11.5019 8.04577 10.535 8.52022 9.56662C8.98085 8.62632 9.43852 7.68504 9.89817 6.74425C9.9687 6.6 10.0565 6.46216 10.1117 6.3125C10.2266 6.00185 10.4269 5.89305 10.7657 5.90241C11.6278 5.92702 12.4913 5.91471 13.3544 5.90684C13.5645 5.90487 13.6434 5.97084 13.6429 6.18991C13.639 9.84871 13.64 13.5075 13.6464 17.1663C13.6464 17.3805 13.5803 17.4455 13.3638 17.4455C12.6526 17.4445 11.9414 17.4642 11.2303 17.4799C10.9575 17.4858 10.8727 17.4041 10.8727 17.1181C10.8727 15.0425 10.8712 12.967 10.8702 10.8914C10.8702 10.79 10.8702 10.6886 10.8115 10.5818C10.306 11.6422 9.80101 12.7026 9.29452 13.7625C9.0568 14.2598 8.81465 14.755 8.57595 15.2522C8.44969 15.5146 8.32393 15.7765 8.2031 16.0414C8.11334 16.2368 7.98561 16.3437 7.75134 16.3368C7.27493 16.323 6.79802 16.3245 6.3216 16.3368C6.13913 16.3417 6.02767 16.2753 5.9532 16.1192C5.52215 15.2168 5.09111 14.3144 4.6581 13.413C4.22114 12.5032 3.7822 11.5949 3.34278 10.6861C3.33686 10.6743 3.31812 10.6684 3.26189 10.63C3.24315 10.7368 3.21356 10.823 3.21603 10.9077C3.22836 11.3246 3.26831 11.7411 3.26387 12.1576C3.24809 13.6148 3.21553 15.0721 3.19482 16.5293C3.19137 16.7671 3.20321 17.0068 3.23132 17.2426C3.24956 17.3972 3.17855 17.4381 3.05525 17.4386C2.24988 17.4405 1.44451 17.4425 0.639144 17.4336C0.588346 17.4331 0.524725 17.3509 0.493655 17.2928C0.469489 17.2476 0.487243 17.1806 0.487243 17.123C0.487243 13.5134 0.487243 9.90385 0.487243 6.29428C0.487243 6.04091 0.614814 5.91406 0.869954 5.91373C1.64228 5.91373 2.4151 5.90979 3.18742 5.9157C3.34968 5.91668 3.51539 5.93785 3.67222 5.97773C3.75113 5.99791 3.84336 6.06684 3.87936 6.13871C4.43863 7.24541 4.98754 8.35753 5.54336 9.46619C5.76135 9.9009 5.99906 10.3258 6.2136 10.7624C6.49274 11.3315 6.75758 11.908 7.05744 12.5426V12.5411Z" fill="#39B54A"/>
<path d="M41.7407 14.9464C41.8926 14.9464 42.006 14.9464 42.1199 14.9464C43.9442 14.9464 45.7685 14.9464 47.5923 14.9473C47.9429 14.9473 47.9503 14.9537 47.9508 15.3067C47.9518 15.9054 47.9494 16.504 47.9489 17.1032C47.9489 17.4197 47.9336 17.4369 47.615 17.4369C44.9197 17.4369 42.2245 17.4359 39.5292 17.4369C39.3344 17.4369 39.1367 17.4305 38.9448 17.4586C38.6987 17.494 38.6509 17.3774 38.6514 17.1686C38.6558 15.8891 38.6553 14.6096 38.6553 13.3301C38.6553 11.0173 38.6553 8.70395 38.6553 6.3911C38.6553 6.07701 38.811 5.93507 39.1224 5.96526C39.1958 5.97215 39.2703 5.96772 39.3443 5.96772C41.8585 5.96772 44.3733 5.9692 46.8875 5.96526C47.0661 5.96526 47.2441 5.91751 47.4231 5.90963C47.6978 5.89683 47.759 5.95985 47.7595 6.22963C47.761 6.86962 47.7526 7.50913 47.7639 8.14863C47.7679 8.37164 47.6983 8.44844 47.4685 8.44746C45.6856 8.44007 43.9028 8.44401 42.1194 8.44303C42.0627 8.44303 42.004 8.43761 41.9493 8.42334C41.7939 8.38247 41.7372 8.44943 41.7372 8.59761C41.7382 9.14702 41.7417 9.69693 41.7338 10.2463C41.7308 10.4378 41.8467 10.4275 41.9759 10.4275C43.5536 10.425 45.1313 10.4236 46.709 10.4231C47.2342 10.4231 47.1652 10.3891 47.1696 10.8893C47.1751 11.4633 47.1617 12.0378 47.1751 12.6119C47.1805 12.8432 47.0917 12.9048 46.8722 12.9043C45.2699 12.8989 43.6675 12.9038 42.0652 12.9053C41.7333 12.9053 41.7362 12.9063 41.7377 13.243C41.7402 13.7993 41.7382 14.3556 41.7382 14.9483L41.7407 14.9464Z" fill="#39B54A"/>
<path d="M71.8213 17.4152C71.7157 17.4236 71.6373 17.4354 71.5589 17.4354C71.0001 17.4378 70.4414 17.4374 69.8826 17.4403C69.5255 17.4418 69.167 17.4295 68.8119 17.4585C68.6087 17.4753 68.5278 17.3783 68.4662 17.2271C68.2477 16.6895 68.0282 16.1524 67.8186 15.6114C67.7698 15.4849 67.7057 15.4435 67.5691 15.444C66.0816 15.4494 64.5942 15.448 63.1067 15.4475C62.9795 15.4475 62.8961 15.4588 62.8374 15.6198C62.6323 16.1805 62.402 16.7329 62.1578 17.2783C62.113 17.3783 61.9576 17.492 61.8536 17.4915C60.9781 17.4895 60.1027 17.4694 59.2283 17.4403C58.9112 17.43 58.9221 17.4167 59.0552 17.1115C59.4651 16.1716 59.8636 15.2269 60.2724 14.2861C60.6556 13.4044 61.0502 12.5281 61.4314 11.6459C61.8965 10.5707 62.3551 9.49304 62.8118 8.41441C63.1265 7.67053 63.4317 6.92322 63.7429 6.17787C63.8105 6.0159 63.921 5.91055 64.1133 5.91104C65.0173 5.91252 65.9213 5.91252 66.8253 5.90808C67.0729 5.9071 67.1035 6.11387 67.1686 6.2655C67.499 7.03005 67.8137 7.80198 68.1382 8.56948C68.5317 9.50043 68.9322 10.4289 69.3248 11.3604C69.8204 12.5375 70.3141 13.7155 70.8019 14.8956C71.1417 15.7172 71.4696 16.5443 71.8223 17.4157L71.8213 17.4152ZM63.8697 12.9914C63.9082 13.0347 63.9131 13.0455 63.9185 13.0455C64.8294 13.0519 65.7403 13.0573 66.6512 13.0632C66.8046 13.0642 66.812 12.9643 66.7745 12.8634C66.634 12.4848 66.484 12.1096 66.3386 11.7325C66.1556 11.257 65.9746 10.7809 65.7906 10.3058C65.6565 9.95876 65.5199 9.61267 65.3576 9.19815C64.8388 10.521 64.3496 11.7675 63.8692 12.9909L63.8697 12.9914Z" fill="#39B54A"/>
<path d="M54.4701 17.6399C52.6054 17.6188 51.1648 17.253 49.8396 16.4727C49.5215 16.2851 49.2241 16.0601 48.9317 15.8337C48.873 15.7879 48.8345 15.6328 48.8666 15.5669C49.2 14.8801 49.5561 14.2046 49.8899 13.5184C49.9777 13.3382 50.0438 13.3525 50.175 13.4637C50.9138 14.089 51.7685 14.5118 52.674 14.8264C53.2308 15.0199 53.8167 15.11 54.4114 15.0514C54.6206 15.0307 54.8385 14.9987 55.0304 14.919C55.3534 14.7846 55.5364 14.5345 55.5359 14.1628C55.5354 13.7936 55.3367 13.5568 55.0408 13.3879C54.4992 13.0787 53.8946 12.9493 53.3008 12.7868C52.8555 12.6652 52.418 12.5141 51.9835 12.3575C51.7039 12.2571 51.4287 12.1375 51.1648 12.0011C50.3807 11.5964 49.817 11.0007 49.6128 10.1185C49.2661 8.61946 49.8184 7.13861 51.26 6.36618C51.8494 6.05062 52.4609 5.83351 53.1267 5.78428C53.6238 5.74736 54.1249 5.68139 54.6186 5.7124C55.1493 5.74539 55.6745 5.87092 56.2002 5.96692C56.9809 6.10969 57.7054 6.40655 58.4018 6.78119C58.7243 6.95449 58.7672 7.02095 58.6144 7.35424C58.318 8.00112 58.0132 8.64407 57.7084 9.28702C57.6462 9.41797 57.5762 9.4741 57.4026 9.39385C56.7181 9.07878 56.0355 8.74795 55.3243 8.50377C54.7651 8.31177 54.1698 8.20445 53.5622 8.27238C53.2308 8.3098 52.8328 8.53281 52.8032 8.76026C52.7494 9.17576 52.7331 9.45441 53.1864 9.69908C53.574 9.90831 53.9888 10.0752 54.4065 10.2185C55.3835 10.5537 56.4187 10.7477 57.301 11.3129C57.9204 11.7097 58.4161 12.2285 58.6272 12.9773C58.9754 14.2125 58.7613 15.3177 57.9155 16.2871C57.4662 16.802 56.8749 17.1078 56.2367 17.319C55.5581 17.5435 54.8598 17.6641 54.4701 17.6395V17.6399Z" fill="#39B54A"/>
<path d="M30.738 5.90507C31.5104 5.90507 32.2847 5.87454 33.055 5.91343C33.8599 5.9543 34.6667 6.03306 35.4179 6.37275C36.2479 6.74789 36.8974 7.32536 37.254 8.16326C37.6219 9.02726 37.689 9.93408 37.5302 10.8704C37.4266 11.4824 37.2461 12.053 36.9014 12.562C36.4462 13.235 35.8193 13.7174 35.0475 13.9587C34.5321 14.1197 33.9871 14.2255 33.4491 14.2629C32.7128 14.3146 31.9705 14.2836 31.2312 14.2747C31.0359 14.2723 30.9782 14.3343 30.9802 14.5278C30.9891 15.3726 30.9841 16.2179 30.9832 17.0626C30.9832 17.3104 30.8627 17.4348 30.6217 17.4358C30.0052 17.4373 29.3887 17.4334 28.7727 17.4412C28.5858 17.4437 28.3994 17.4939 28.2125 17.4954C27.9308 17.4974 27.8707 17.4127 27.8741 17.1404C27.8771 16.9066 27.8455 16.6722 27.8445 16.4379C27.8411 15.1953 27.8431 13.9528 27.8431 12.7102C27.8431 12.2548 27.8357 11.7989 27.845 11.3435C27.85 11.091 27.9022 10.8394 27.8998 10.5874C27.886 9.15477 27.8657 7.72167 27.8386 6.28906C27.8347 6.08525 27.8776 5.95676 28.1044 5.94445C28.2184 5.93805 28.3313 5.90851 28.4452 5.90802C29.2097 5.90457 29.9736 5.90605 30.738 5.90605V5.90408V5.90507ZM30.9822 11.7989C31.2736 11.7989 31.5197 11.8083 31.7653 11.797C32.3601 11.7694 32.9564 11.7492 33.5487 11.6911C33.8826 11.6581 34.1366 11.4351 34.3353 11.1762C34.6904 10.7134 34.6914 10.1679 34.6031 9.63476C34.5627 9.38959 34.4098 9.14443 34.253 8.94111C33.9649 8.56646 33.5359 8.45815 33.0836 8.45175C32.4676 8.44289 31.8512 8.45372 31.2352 8.44437C31.0433 8.44142 30.9772 8.50542 30.9797 8.69938C30.9886 9.41273 30.9827 10.1266 30.9827 10.8399C30.9827 11.1496 30.9827 11.4592 30.9827 11.7994L30.9822 11.7989Z" fill="#39B54A"/>
<path d="M26.2478 9.66427C25.8123 9.45553 25.4439 9.29061 25.0898 9.10058C25.0192 9.06267 24.9694 8.92975 24.964 8.8372C24.9472 8.55117 24.9586 8.26317 24.9561 7.97616C24.9472 7.01124 24.2439 6.04731 23.1728 5.99759C21.8634 5.93703 20.5505 5.939 19.2391 5.91488C18.6956 5.90454 18.1566 5.96313 17.6723 6.21568C17.4499 6.33186 17.261 6.53518 17.0938 6.73014C16.7426 7.13973 16.6617 7.63007 16.6701 8.16274C16.6899 9.38464 16.6701 10.607 16.6765 11.8294C16.678 12.0579 16.5863 12.2001 16.391 12.2942C16.1498 12.4103 15.9111 12.5319 15.668 12.6432C15.4756 12.7308 15.3923 12.6752 15.3903 12.461C15.3869 12.1002 15.3903 11.7393 15.3903 11.3785C15.3903 9.36889 15.4061 7.35881 15.3839 5.34922C15.374 4.45717 15.9974 3.59121 16.9078 3.3421C17.1174 3.2845 17.3414 3.25349 17.5588 3.2525C19.7284 3.24462 21.8979 3.24216 24.0674 3.25053C24.3169 3.25152 24.4008 3.18505 24.3865 2.93349C24.3668 2.59035 24.3776 2.24475 24.3855 1.90014C24.3954 1.47676 24.7776 1.09572 25.2022 1.07356C25.8843 1.03812 26.2487 1.39701 26.2478 2.08229C26.2448 4.45323 26.2473 6.82367 26.2478 9.19461C26.2478 9.33049 26.2478 9.46686 26.2478 9.66525V9.66427Z" fill="#C9DCBF"/>
<path fill-rule="evenodd" clip-rule="evenodd" d="M18.0636 10.4404C18.4833 11.4206 19.0549 11.8711 19.7473 11.8986C18.6677 12.7036 17.4994 13.1929 16.2817 13.5055C15.5173 13.4568 14.7859 13.2623 14.0757 13.0683C15.8694 12.7149 17.2069 11.8484 18.0631 10.4404" fill="#7F1D1E"/>
<path fill-rule="evenodd" clip-rule="evenodd" d="M22.7677 7.91284L27.8287 10.4645C25.2508 13.8495 20.9044 13.9386 16.2749 13.501C19.3701 12.7399 21.513 10.8519 22.7677 7.91284Z" fill="#EC1D27"/>
</g>
<defs>
<clipPath id="clip0_1_5983">
<rect width="72" height="24.3" fill="white" transform="translate(0 0.619995)"/>
</clipPath>
</defs>
</svg>
